<?xml version="1.0" encoding="UTF-8"?>
<svg width="122px" height="104px" viewBox="0 0 122 104" version="1.1" xmlns="http://www.w3.org/2000/svg" xmlns:xlink="http://www.w3.org/1999/xlink">
    <!-- Generator: Sketch 55 (78076) - https://sketchapp.com -->
    <title>暂无相关卡</title>
    <desc>Created with Sketch.</desc>
    <g id="Page-1" stroke="none" stroke-width="1" fill="none" fill-rule="evenodd">
        <g id="空白页" transform="translate(-348.000000, -664.000000)">
            <g id="暂无银行卡" transform="translate(348.000000, 664.000000)">
                <g id="分组-8">
                    <path d="M15,82.3 C14.5581722,82.3 14.2,81.9418278 14.2,81.5 C14.2,81.0581722 14.5581722,80.7 15,80.7 L85,80.7 C85.4418278,80.7 85.8,81.0581722 85.8,81.5 C85.8,81.9418278 85.4418278,82.3 85,82.3 L15,82.3 Z M89,82.3 C88.5581722,82.3 88.2,81.9418278 88.2,81.5 C88.2,81.0581722 88.5581722,80.7 89,80.7 L91.5,80.7 C91.9418278,80.7 92.3,81.0581722 92.3,81.5 C92.3,81.9418278 91.9418278,82.3 91.5,82.3 L89,82.3 Z M98,82.3 C97.5581722,82.3 97.2,81.9418278 97.2,81.5 C97.2,81.0581722 97.5581722,80.7 98,80.7 L107,80.7 C107.441828,80.7 107.8,81.0581722 107.8,81.5 C107.8,81.9418278 107.441828,82.3 107,82.3 L98,82.3 Z M38,89.8 C37.5581722,89.8 37.2,89.4418278 37.2,89 C37.2,88.5581722 37.5581722,88.2 38,88.2 L45,88.2 C45.4418278,88.2 45.8,88.5581722 45.8,89 C45.8,89.4418278 45.4418278,89.8 45,89.8 L38,89.8 Z M49.5,89.8 C49.0581722,89.8 48.7,89.4418278 48.7,89 C48.7,88.5581722 49.0581722,88.2 49.5,88.2 L80,88.2 C80.4418278,88.2 80.8,88.5581722 80.8,89 C80.8,89.4418278 80.4418278,89.8 80,89.8 L49.5,89.8 Z M94.2,62 C94.2,60.9333333 95.8,60.9333333 95.8,62 L95.8,65 C95.8,65.4418278 95.4418278,65.8 95,65.8 L92,65.8 C90.9333333,65.8 90.9333333,64.2 92,64.2 L94.2,64.2 L94.2,62 Z M95.8,68 C95.8,69.0666667 94.2,69.0666667 94.2,68 L94.2,65 C94.2,64.5581722 94.5581722,64.2 95,64.2 L98,64.2 C99.0666667,64.2 99.0666667,65.8 98,65.8 L95.8,65.8 L95.8,68 Z M18.2,38 C18.2,36.9333333 19.8,36.9333333 19.8,38 L19.8,41 C19.8,41.4418278 19.4418278,41.8 19,41.8 L16,41.8 C14.9333333,41.8 14.9333333,40.2 16,40.2 L18.2,40.2 L18.2,38 Z M92.3,12.7 L95,12.7 C96.0666667,12.7 96.0666667,14.3 95,14.3 L92.3,14.3 L92.3,17 C92.3,18.0666667 90.7,18.0666667 90.7,17 L90.7,14.3 L88,14.3 C86.9333333,14.3 86.9333333,12.7 88,12.7 L90.7,12.7 L90.7,10 C90.7,8.93333333 92.3,8.93333333 92.3,10 L92.3,12.7 Z M19.8,44 C19.8,45.0666667 18.2,45.0666667 18.2,44 L18.2,41 C18.2,40.5581722 18.5581722,40.2 19,40.2 L22,40.2 C23.0666667,40.2 23.0666667,41.8 22,41.8 L19.8,41.8 L19.8,44 Z M28.2928932,70.3431458 C28.7642977,69.8717412 29.4714045,70.578848 29,71.0502525 L27.9393398,72.1109127 C27.7440777,72.3061748 27.4274952,72.3061748 27.232233,72.1109127 L26.1715729,71.0502525 C25.7001684,70.578848 26.4072751,69.8717412 26.8786797,70.3431458 L27.5857864,71.0502525 L28.2928932,70.3431458 Z M26.8786797,73.1715729 C26.4072751,73.6429774 25.7001684,72.9358706 26.1715729,72.4644661 L27.232233,71.4038059 C27.4274952,71.2085438 27.7440777,71.2085438 27.9393398,71.4038059 L29,72.4644661 C29.4714045,72.9358706 28.7642977,73.6429774 28.2928932,73.1715729 L27.5857864,72.4644661 L26.8786797,73.1715729 Z M37.1213203,18 C37.5927249,17.5285955 38.2998316,18.2357023 37.8284271,18.7071068 L36.767767,19.767767 C36.5725048,19.9630291 36.2559223,19.9630291 36.0606602,19.767767 L35,18.7071068 C34.5285955,18.2357023 35.2357023,17.5285955 35.7071068,18 L36.4142136,18.7071068 L37.1213203,18 Z M35.7071068,20.8284271 C35.2357023,21.2998316 34.5285955,20.5927249 35,20.1213203 L36.0606602,19.0606602 C36.2559223,18.865398 36.5725048,18.865398 36.767767,19.0606602 L37.8284271,20.1213203 C38.2998316,20.5927249 37.5927249,21.2998316 37.1213203,20.8284271 L36.4142136,20.1213203 L35.7071068,20.8284271 Z" id="Path" fill="#C3CBD6" fill-rule="nonzero"></path>
                    <g id="编组" transform="translate(35.000000, 31.000000)" stroke="#C3CBD6" stroke-width="1.6">
                        <path d="M10,0 L51,0 C52.6568542,-3.04359188e-16 54,1.34314575 54,3 L54,26 C54,27.6568542 52.6568542,29 51,29 L10,29 C8.34314575,29 7,27.6568542 7,26 L7,3 C7,1.34314575 8.34314575,3.04359188e-16 10,0 Z" id="矩形" fill="#F5F7F9"></path>
                        <path d="M3,8 L44,8 C45.6568542,8 47,9.34314575 47,11 L47,34 C47,35.6568542 45.6568542,37 44,37 L3,37 C1.34314575,37 2.02906125e-16,35.6568542 0,34 L-8.8817842e-16,11 C-1.09108455e-15,9.34314575 1.34314575,8 3,8 Z" id="矩形复制" fill="#FFFFFF"></path>
                        <path d="M4,31 L20,31" id="路径-4" stroke-linecap="round" stroke-linejoin="round"></path>
                        <path d="M4,28 L14,28" id="路径-4复制" stroke-linecap="round" stroke-linejoin="round"></path>
                        <polygon id="路径-4复制-2" fill="#F5F7F9" stroke-linecap="round" stroke-linejoin="round" points="0 15 47 15 47 20 1.66977543e-13 20"></polygon>
                    </g>
                </g>
            </g>
        </g>
    </g>
</svg>