<?xml version="1.0" encoding="UTF-8"?>
<svg width="122px" height="104px" viewBox="0 0 122 104" version="1.1" xmlns="http://www.w3.org/2000/svg" xmlns:xlink="http://www.w3.org/1999/xlink">
    <!-- Generator: Sketch 55 (78076) - https://sketchapp.com -->
    <title>暂无相关卡券</title>
    <desc>Created with Sketch.</desc>
    <defs>
        <rect id="path-1" x="0" y="0" width="25" height="43"></rect>
        <rect id="path-3" x="0" y="0" width="25" height="43"></rect>
    </defs>
    <g id="Page-1" stroke="none" stroke-width="1" fill="none" fill-rule="evenodd">
        <g id="空白页" transform="translate(-348.000000, -352.000000)">
            <g id="暂无相关卡券" transform="translate(348.000000, 352.000000)">
                <g id="分组-3">
                    <g id="背景/线" fill="#C3CBD6">
                        <g id="-">
                            <g id="编组" transform="translate(14.200000, 9.200000)" fill-rule="nonzero">
                                <path d="M0.8,73.1 C0.3581722,73.1 -5.68434189e-14,72.7418278 -5.68434189e-14,72.3 C-5.68434189e-14,71.8581722 0.3581722,71.5 0.8,71.5 L70.8,71.5 C71.2418278,71.5 71.6,71.8581722 71.6,72.3 C71.6,72.7418278 71.2418278,73.1 70.8,73.1 L0.8,73.1 Z M74.8,73.1 C74.3581722,73.1 74,72.7418278 74,72.3 C74,71.8581722 74.3581722,71.5 74.8,71.5 L77.3,71.5 C77.7418278,71.5 78.1,71.8581722 78.1,72.3 C78.1,72.7418278 77.7418278,73.1 77.3,73.1 L74.8,73.1 Z M83.8,73.1 C83.3581722,73.1 83,72.7418278 83,72.3 C83,71.8581722 83.3581722,71.5 83.8,71.5 L92.8,71.5 C93.2418278,71.5 93.6,71.8581722 93.6,72.3 C93.6,72.7418278 93.2418278,73.1 92.8,73.1 L83.8,73.1 Z M23.8,80.6 C23.3581722,80.6 23,80.2418278 23,79.8 C23,79.3581722 23.3581722,79 23.8,79 L30.8,79 C31.2418278,79 31.6,79.3581722 31.6,79.8 C31.6,80.2418278 31.2418278,80.6 30.8,80.6 L23.8,80.6 Z M35.3,80.6 C34.8581722,80.6 34.5,80.2418278 34.5,79.8 C34.5,79.3581722 34.8581722,79 35.3,79 L65.8,79 C66.2418278,79 66.6,79.3581722 66.6,79.8 C66.6,80.2418278 66.2418278,80.6 65.8,80.6 L35.3,80.6 Z M80,52.8 C80,51.7333333 81.6,51.7333333 81.6,52.8 L81.6,55.8 C81.6,56.2418278 81.2418278,56.6 80.8,56.6 L77.8,56.6 C76.7333333,56.6 76.7333333,55 77.8,55 L80,55 L80,52.8 Z M81.6,58.8 C81.6,59.8666667 80,59.8666667 80,58.8 L80,55.8 C80,55.3581722 80.3581722,55 80.8,55 L83.8,55 C84.8666667,55 84.8666667,56.6 83.8,56.6 L81.6,56.6 L81.6,58.8 Z M4,28.8 C4,27.7333333 5.6,27.7333333 5.6,28.8 L5.6,31.8 C5.6,32.2418278 5.2418278,32.6 4.8,32.6 L1.8,32.6 C0.733333333,32.6 0.733333333,31 1.8,31 L4,31 L4,28.8 Z M78.1,3.5 L80.8,3.5 C81.8666667,3.5 81.8666667,5.1 80.8,5.1 L78.1,5.1 L78.1,7.8 C78.1,8.86666667 76.5,8.86666667 76.5,7.8 L76.5,5.1 L73.8,5.1 C72.7333333,5.1 72.7333333,3.5 73.8,3.5 L76.5,3.5 L76.5,0.8 C76.5,-0.266666667 78.1,-0.266666667 78.1,0.8 L78.1,3.5 Z M5.6,34.8 C5.6,35.8666667 4,35.8666667 4,34.8 L4,31.8 C4,31.3581722 4.3581722,31 4.8,31 L7.8,31 C8.86666667,31 8.86666667,32.6 7.8,32.6 L5.6,32.6 L5.6,34.8 Z" id="Path-2"></path>
                                <path d="M14.0928932,61.1431458 C14.5642977,60.6717412 15.2714045,61.378848 14.8,61.8502525 L13.7393398,62.9109127 C13.5440777,63.1061748 13.2274952,63.1061748 13.032233,62.9109127 L11.9715729,61.8502525 C11.5001684,61.378848 12.2072751,60.6717412 12.6786797,61.1431458 L13.3857864,61.8502525 L14.0928932,61.1431458 Z M12.6786797,63.9715729 C12.2072751,64.4429774 11.5001684,63.7358706 11.9715729,63.2644661 L13.032233,62.2038059 C13.2274952,62.0085438 13.5440777,62.0085438 13.7393398,62.2038059 L14.8,63.2644661 C15.2714045,63.7358706 14.5642977,64.4429774 14.0928932,63.9715729 L13.3857864,63.2644661 L12.6786797,63.9715729 Z M22.9213203,8.8 C23.3927249,8.32859548 24.0998316,9.03570226 23.6284271,9.50710678 L22.567767,10.567767 C22.3725048,10.7630291 22.0559223,10.7630291 21.8606602,10.567767 L20.8,9.50710678 C20.3285955,9.03570226 21.0357023,8.32859548 21.5071068,8.8 L22.2142136,9.50710678 L22.9213203,8.8 Z M21.5071068,11.6284271 C21.0357023,12.0998316 20.3285955,11.3927249 20.8,10.9213203 L21.8606602,9.86066017 C22.0559223,9.66539803 22.3725048,9.66539803 22.567767,9.86066017 L23.6284271,10.9213203 C24.0998316,11.3927249 23.3927249,12.0998316 22.9213203,11.6284271 L22.2142136,10.9213203 L21.5071068,11.6284271 Z" id="Path复制"></path>
                            </g>
                        </g>
                    </g>
                    <g id="编组" transform="translate(19.000000, 35.000000)">
                        <g id="Group-2" transform="translate(55.000000, 0.000000)">
                            <mask id="mask-2" fill="white">
                                <use xlink:href="#path-1"></use>
                            </mask>
                            <g id="Rectangle-5"></g>
                            <path d="M1.932656,9.07025959 C0.0070519261,9.07025959 -1.74333633,8.11283696 -2.79487066,6.58665434 L-7.65750185,6.58665434 C-7.87841575,6.58665434 -8.05750185,6.76574044 -8.05750185,6.98665434 L-8.05750185,36.101391 C-8.05750185,36.3223049 -7.87841575,36.501391 -7.65750185,36.501391 L-2.79487066,36.501391 C-1.74333633,34.9752084 0.0070519261,34.0177858 1.932656,34.0177858 C3.85826007,34.0177858 5.60864832,34.9752084 6.66018266,36.501391 L11.5228138,36.501391 C11.7437277,36.501391 11.9228138,36.3223049 11.9228138,36.101391 L11.9228138,6.98665434 C11.9228138,6.76574044 11.7437277,6.58665434 11.5228138,6.58665434 L6.66018266,6.58665434 C5.60864832,8.11283696 3.85826007,9.07025959 1.932656,9.07025959 Z" id="Rectangle-4" fill="#F5F7F9" fill-rule="nonzero" mask="url(#mask-2)" transform="translate(1.932656, 21.544023) rotate(30.000000) translate(-1.932656, -21.544023) "></path>
                            <path d="M1.7031428,27.4453988 C4.47724002,27.4453988 6.72609014,25.1965487 6.72609014,22.4224514 C6.72609014,19.6483542 4.47724002,17.3995041 1.7031428,17.3995041 C-1.07095441,17.3995041 -3.31980454,19.6483542 -3.31980454,22.4224514 C-3.31980454,25.1965487 -1.07095441,27.4453988 1.7031428,27.4453988 Z" id="Path" fill="#FFFFFF" fill-rule="nonzero" mask="url(#mask-2)"></path>
                            <path d="M1.932656,9.07025959 C0.0070519261,9.07025959 -1.74333633,8.11283696 -2.79487066,6.58665434 L-7.65750185,6.58665434 C-7.87841575,6.58665434 -8.05750185,6.76574044 -8.05750185,6.98665434 L-8.05750185,36.101391 C-8.05750185,36.3223049 -7.87841575,36.501391 -7.65750185,36.501391 L-2.79487066,36.501391 C-1.74333633,34.9752084 0.0070519261,34.0177858 1.932656,34.0177858 C3.85826007,34.0177858 5.60864832,34.9752084 6.66018266,36.501391 L11.5228138,36.501391 C11.7437277,36.501391 11.9228138,36.3223049 11.9228138,36.101391 L11.9228138,6.98665434 C11.9228138,6.76574044 11.7437277,6.58665434 11.5228138,6.58665434 L6.66018266,6.58665434 C5.60864832,8.11283696 3.85826007,9.07025959 1.932656,9.07025959 Z M5.72756866,4.98665434 L11.5228138,4.98665434 C12.6273833,4.98665434 13.5228138,5.88208484 13.5228138,6.98665434 L13.5228138,36.101391 C13.5228138,37.2059605 12.6273833,38.101391 11.5228138,38.101391 L5.72756866,38.101391 C5.0888213,36.6394542 3.63005038,35.6177858 1.932656,35.6177858 C0.235261621,35.6177858 -1.2235093,36.6394542 -1.86225666,38.101391 L-7.65750185,38.101391 C-8.76207135,38.101391 -9.65750185,37.2059605 -9.65750185,36.101391 L-9.65750185,6.98665434 C-9.65750185,5.88208484 -8.76207135,4.98665434 -7.65750185,4.98665434 L-1.86225666,4.98665434 C-1.2235093,6.44859113 0.235261621,7.47025959 1.932656,7.47025959 C3.63005038,7.47025959 5.0888213,6.44859113 5.72756866,4.98665434 Z M1.932656,27.3948385 C4.70675321,27.3948385 6.95560334,25.1459883 6.95560334,22.3718911 C6.95560334,19.5977939 4.70675321,17.3489438 1.932656,17.3489438 C-0.841441218,17.3489438 -3.09029134,19.5977939 -3.09029134,22.3718911 C-3.09029134,25.1459883 -0.841441218,27.3948385 1.932656,27.3948385 Z M1.932656,28.9948385 C-1.72509682,28.9948385 -4.69029134,26.0296439 -4.69029134,22.3718911 C-4.69029134,18.7141383 -1.72509682,15.7489438 1.932656,15.7489438 C5.59040881,15.7489438 8.55560334,18.7141383 8.55560334,22.3718911 C8.55560334,26.0296439 5.59040881,28.9948385 1.932656,28.9948385 Z M-0.283571665,24.7575539 C-0.458089061,24.9052224 -0.719272388,24.8834571 -0.866940953,24.7089397 C-1.01460952,24.5344223 -0.992844242,24.273239 -0.818326846,24.1255705 L4.56281787,19.5722942 C4.73733527,19.4246256 4.99851859,19.4463909 5.14618716,19.6209083 C5.29385572,19.7954257 5.27209045,20.056609 5.09757305,20.2042776 L-0.283571665,24.7575539 Z M4.00232704,25.6833648 C3.31649839,25.6833648 2.76052442,25.1273908 2.76052442,24.4415622 C2.76052442,23.7557335 3.31649839,23.1997595 4.00232704,23.1997595 C4.6881557,23.1997595 5.24412967,23.7557335 5.24412967,24.4415622 C5.24412967,25.1273908 4.6881557,25.6833648 4.00232704,25.6833648 Z M4.00232704,24.8554964 C4.23093659,24.8554964 4.41626125,24.6701717 4.41626125,24.4415622 C4.41626125,24.2129526 4.23093659,24.0276279 4.00232704,24.0276279 C3.77371749,24.0276279 3.58839283,24.2129526 3.58839283,24.4415622 C3.58839283,24.6701717 3.77371749,24.8554964 4.00232704,24.8554964 Z M0.690853371,21.5440227 C0.00502471837,21.5440227 -0.550949255,20.9880487 -0.550949255,20.3022201 C-0.550949255,19.6163914 0.00502471837,19.0604174 0.690853371,19.0604174 C1.37668202,19.0604174 1.932656,19.6163914 1.932656,20.3022201 C1.932656,20.9880487 1.37668202,21.5440227 0.690853371,21.5440227 Z M0.690853371,20.7161543 C0.919462922,20.7161543 1.10478758,20.5308296 1.10478758,20.3022201 C1.10478758,20.0736105 0.919462922,19.8882859 0.690853371,19.8882859 C0.46224382,19.8882859 0.276919162,20.0736105 0.276919162,20.3022201 C0.276919162,20.5308296 0.46224382,20.7161543 0.690853371,20.7161543 Z" id="Rectangle-4-Copy-3" fill="#C3CBD6" fill-rule="nonzero" mask="url(#mask-2)" transform="translate(1.932656, 21.544023) rotate(30.000000) translate(-1.932656, -21.544023) "></path>
                        </g>
                        <g id="Group-2-Copy" transform="translate(12.500000, 21.500000) scale(-1, 1) translate(-12.500000, -21.500000) ">
                            <mask id="mask-4" fill="white">
                                <use xlink:href="#path-3"></use>
                            </mask>
                            <g id="Rectangle-5"></g>
                            <path d="M1.932656,9.07025959 C0.0070519261,9.07025959 -1.74333633,8.11283696 -2.79487066,6.58665434 L-7.65750185,6.58665434 C-7.87841575,6.58665434 -8.05750185,6.76574044 -8.05750185,6.98665434 L-8.05750185,36.101391 C-8.05750185,36.3223049 -7.87841575,36.501391 -7.65750185,36.501391 L-2.79487066,36.501391 C-1.74333633,34.9752084 0.0070519261,34.0177858 1.932656,34.0177858 C3.85826007,34.0177858 5.60864832,34.9752084 6.66018266,36.501391 L11.5228138,36.501391 C11.7437277,36.501391 11.9228138,36.3223049 11.9228138,36.101391 L11.9228138,6.98665434 C11.9228138,6.76574044 11.7437277,6.58665434 11.5228138,6.58665434 L6.66018266,6.58665434 C5.60864832,8.11283696 3.85826007,9.07025959 1.932656,9.07025959 Z" id="Rectangle-4" fill="#F5F7F9" fill-rule="nonzero" mask="url(#mask-4)" transform="translate(1.932656, 21.544023) rotate(30.000000) translate(-1.932656, -21.544023) "></path>
                            <path d="M1.7031428,27.4453988 C4.47724002,27.4453988 6.72609014,25.1965487 6.72609014,22.4224514 C6.72609014,19.6483542 4.47724002,17.3995041 1.7031428,17.3995041 C-1.07095441,17.3995041 -3.31980454,19.6483542 -3.31980454,22.4224514 C-3.31980454,25.1965487 -1.07095441,27.4453988 1.7031428,27.4453988 Z" id="Path" fill="#FFFFFF" fill-rule="nonzero" mask="url(#mask-4)"></path>
                            <path d="M1.932656,9.07025959 C0.0070519261,9.07025959 -1.74333633,8.11283696 -2.79487066,6.58665434 L-7.65750185,6.58665434 C-7.87841575,6.58665434 -8.05750185,6.76574044 -8.05750185,6.98665434 L-8.05750185,36.101391 C-8.05750185,36.3223049 -7.87841575,36.501391 -7.65750185,36.501391 L-2.79487066,36.501391 C-1.74333633,34.9752084 0.0070519261,34.0177858 1.932656,34.0177858 C3.85826007,34.0177858 5.60864832,34.9752084 6.66018266,36.501391 L11.5228138,36.501391 C11.7437277,36.501391 11.9228138,36.3223049 11.9228138,36.101391 L11.9228138,6.98665434 C11.9228138,6.76574044 11.7437277,6.58665434 11.5228138,6.58665434 L6.66018266,6.58665434 C5.60864832,8.11283696 3.85826007,9.07025959 1.932656,9.07025959 Z M5.72756866,4.98665434 L11.5228138,4.98665434 C12.6273833,4.98665434 13.5228138,5.88208484 13.5228138,6.98665434 L13.5228138,36.101391 C13.5228138,37.2059605 12.6273833,38.101391 11.5228138,38.101391 L5.72756866,38.101391 C5.0888213,36.6394542 3.63005038,35.6177858 1.932656,35.6177858 C0.235261621,35.6177858 -1.2235093,36.6394542 -1.86225666,38.101391 L-7.65750185,38.101391 C-8.76207135,38.101391 -9.65750185,37.2059605 -9.65750185,36.101391 L-9.65750185,6.98665434 C-9.65750185,5.88208484 -8.76207135,4.98665434 -7.65750185,4.98665434 L-1.86225666,4.98665434 C-1.2235093,6.44859113 0.235261621,7.47025959 1.932656,7.47025959 C3.63005038,7.47025959 5.0888213,6.44859113 5.72756866,4.98665434 Z M1.932656,27.3948385 C4.70675321,27.3948385 6.95560334,25.1459883 6.95560334,22.3718911 C6.95560334,19.5977939 4.70675321,17.3489438 1.932656,17.3489438 C-0.841441218,17.3489438 -3.09029134,19.5977939 -3.09029134,22.3718911 C-3.09029134,25.1459883 -0.841441218,27.3948385 1.932656,27.3948385 Z M1.932656,28.9948385 C-1.72509682,28.9948385 -4.69029134,26.0296439 -4.69029134,22.3718911 C-4.69029134,18.7141383 -1.72509682,15.7489438 1.932656,15.7489438 C5.59040881,15.7489438 8.55560334,18.7141383 8.55560334,22.3718911 C8.55560334,26.0296439 5.59040881,28.9948385 1.932656,28.9948385 Z M-0.283571665,24.7575539 C-0.458089061,24.9052224 -0.719272388,24.8834571 -0.866940953,24.7089397 C-1.01460952,24.5344223 -0.992844242,24.273239 -0.818326846,24.1255705 L4.56281787,19.5722942 C4.73733527,19.4246256 4.99851859,19.4463909 5.14618716,19.6209083 C5.29385572,19.7954257 5.27209045,20.056609 5.09757305,20.2042776 L-0.283571665,24.7575539 Z M4.00232704,25.6833648 C3.31649839,25.6833648 2.76052442,25.1273908 2.76052442,24.4415622 C2.76052442,23.7557335 3.31649839,23.1997595 4.00232704,23.1997595 C4.6881557,23.1997595 5.24412967,23.7557335 5.24412967,24.4415622 C5.24412967,25.1273908 4.6881557,25.6833648 4.00232704,25.6833648 Z M4.00232704,24.8554964 C4.23093659,24.8554964 4.41626125,24.6701717 4.41626125,24.4415622 C4.41626125,24.2129526 4.23093659,24.0276279 4.00232704,24.0276279 C3.77371749,24.0276279 3.58839283,24.2129526 3.58839283,24.4415622 C3.58839283,24.6701717 3.77371749,24.8554964 4.00232704,24.8554964 Z M0.690853371,21.5440227 C0.00502471837,21.5440227 -0.550949255,20.9880487 -0.550949255,20.3022201 C-0.550949255,19.6163914 0.00502471837,19.0604174 0.690853371,19.0604174 C1.37668202,19.0604174 1.932656,19.6163914 1.932656,20.3022201 C1.932656,20.9880487 1.37668202,21.5440227 0.690853371,21.5440227 Z M0.690853371,20.7161543 C0.919462922,20.7161543 1.10478758,20.5308296 1.10478758,20.3022201 C1.10478758,20.0736105 0.919462922,19.8882859 0.690853371,19.8882859 C0.46224382,19.8882859 0.276919162,20.0736105 0.276919162,20.3022201 C0.276919162,20.5308296 0.46224382,20.7161543 0.690853371,20.7161543 Z" id="Rectangle-4-Copy-2" fill="#C3CBD6" fill-rule="nonzero" mask="url(#mask-4)" transform="translate(1.932656, 21.544023) rotate(30.000000) translate(-1.932656, -21.544023) "></path>
                        </g>
                        <path d="M40,4.6 C37.7256597,4.6 35.6639105,3.43861213 34.4670668,1.6 L28,1.6 C27.7790861,1.6 27.6,1.7790861 27.6,2 L27.6,38 C27.6,38.2209139 27.7790861,38.4 28,38.4 L34.4670668,38.4 C35.6639105,36.5613879 37.7256597,35.4 40,35.4 C42.2743403,35.4 44.3360895,36.5613879 45.5329332,38.4 L52,38.4 C52.2209139,38.4 52.4,38.2209139 52.4,38 L52.4,2 C52.4,1.7790861 52.2209139,1.6 52,1.6 L45.5329332,1.6 C44.3360895,3.43861213 42.2743403,4.6 40,4.6 Z" id="Path-Copy-2" fill="#FFFFFF" fill-rule="nonzero"></path>
                        <path d="M40,4.6 C37.7256597,4.6 35.6639105,3.43861213 34.4670668,1.6 L28,1.6 C27.7790861,1.6 27.6,1.7790861 27.6,2 L27.6,38 C27.6,38.2209139 27.7790861,38.4 28,38.4 L34.4670668,38.4 C35.6639105,36.5613879 37.7256597,35.4 40,35.4 C42.2743403,35.4 44.3360895,36.5613879 45.5329332,38.4 L52,38.4 C52.2209139,38.4 52.4,38.2209139 52.4,38 L52.4,2 C52.4,1.7790861 52.2209139,1.6 52,1.6 L45.5329332,1.6 C44.3360895,3.43861213 42.2743403,4.6 40,4.6 Z M44.5839563,0 L52,0 C53.1045695,0 54,0.8954305 54,2 L54,38 C54,39.1045695 53.1045695,40 52,40 L44.5839563,40 C43.8123997,38.2340952 42.050319,37 40,37 C37.949681,37 36.1876003,38.2340952 35.4160437,40 L28,40 C26.8954305,40 26,39.1045695 26,38 L26,2 C26,0.8954305 26.8954305,0 28,0 L35.4160437,0 C36.1876003,1.76590478 37.949681,3 40,3 C42.050319,3 43.8123997,1.76590478 44.5839563,0 Z M37.3229711,23.8816931 C37.1121678,24.0600652 36.7966789,24.0337744 36.6183069,23.8229711 C36.4399348,23.6121678 36.4662256,23.2966789 36.6770289,23.1183069 L43.1770289,17.6183069 C43.3878322,17.4399348 43.7033211,17.4662256 43.8816931,17.6770289 C44.0600652,17.8878322 44.0337744,18.2033211 43.8229711,18.3816931 L37.3229711,23.8816931 Z M42.5,25 C41.6715729,25 41,24.3284271 41,23.5 C41,22.6715729 41.6715729,22 42.5,22 C43.3284271,22 44,22.6715729 44,23.5 C44,24.3284271 43.3284271,25 42.5,25 Z M42.5,24 C42.7761424,24 43,23.7761424 43,23.5 C43,23.2238576 42.7761424,23 42.5,23 C42.2238576,23 42,23.2238576 42,23.5 C42,23.7761424 42.2238576,24 42.5,24 Z M38.5,20 C37.6715729,20 37,19.3284271 37,18.5 C37,17.6715729 37.6715729,17 38.5,17 C39.3284271,17 40,17.6715729 40,18.5 C40,19.3284271 39.3284271,20 38.5,20 Z M38.5,19 C38.7761424,19 39,18.7761424 39,18.5 C39,18.2238576 38.7761424,18 38.5,18 C38.2238576,18 38,18.2238576 38,18.5 C38,18.7761424 38.2238576,19 38.5,19 Z M40,27.4 C43.5346224,27.4 46.4,24.5346224 46.4,21 C46.4,17.4653776 43.5346224,14.6 40,14.6 C36.4653776,14.6 33.6,17.4653776 33.6,21 C33.6,24.5346224 36.4653776,27.4 40,27.4 Z M40,29 C35.581722,29 32,25.418278 32,21 C32,16.581722 35.581722,13 40,13 C44.418278,13 48,16.581722 48,21 C48,25.418278 44.418278,29 40,29 Z" id="Rectangle-4" fill="#C3CBD6" fill-rule="nonzero"></path>
                    </g>
                </g>
            </g>
        </g>
    </g>
</svg>